<svg width="1840" height="208" viewBox="0 0 1840 208" fill="none" xmlns="http://www.w3.org/2000/svg">
<path d="M111.79 203.545H73.8759L0 4.45515H40.9802L98.6871 173.473H88.9299L146.358 4.45515H185.665L111.79 203.545Z" fill="#FFF2E6" style="fill:#FFF2E6;fill:color(display-p3 1.0000 0.9478 0.9019);fill-opacity:1;"/>
<path d="M344.237 203.545H303.536L242.762 31.4645H253.635L192.583 203.545H153.554L227.987 4.45515H269.804L344.237 203.545Z" fill="#FFF2E6" style="fill:#FFF2E6;fill:color(display-p3 1.0000 0.9478 0.9019);fill-opacity:1;"/>
<path d="M392.213 203.545H355.415V4.45515H394.722L497.87 167.347H482.816V4.45515H519.614V203.545H480.307L377.159 40.6533H392.213V203.545Z" fill="#FFF2E6" style="fill:#FFF2E6;fill:color(display-p3 1.0000 0.9478 0.9019);fill-opacity:1;"/>
<path d="M626.553 203.545H589.197V34.249H626.553V203.545ZM684.818 37.0335H530.933V4.45515H684.818V37.0335Z" fill="#FFF2E6" style="fill:#FFF2E6;fill:color(display-p3 1.0000 0.9478 0.9019);fill-opacity:1;"/>
<path d="M848.497 203.545H807.796L747.022 31.4645H757.894L696.842 203.545H657.813L732.247 4.45515H774.063L848.497 203.545Z" fill="#FFF2E6" style="fill:#FFF2E6;fill:color(display-p3 1.0000 0.9478 0.9019);fill-opacity:1;"/>
<path d="M885.491 171.245L910.303 145.906C914.763 152.032 920.153 157.323 926.472 161.778C932.977 166.233 939.946 169.667 947.38 172.08C955 174.308 962.806 175.422 970.797 175.422C983.063 175.422 992.728 173.008 999.79 168.182C1007.04 163.17 1010.66 156.394 1010.66 147.855C1010.66 140.059 1007.22 133.933 1000.35 129.478C993.657 125.023 982.227 121.496 966.058 118.897C941.154 115.184 922.848 108.687 911.139 99.4056C899.616 90.1241 893.855 77.5011 893.855 61.5368C893.855 49.0995 897.014 38.3329 903.333 29.2369C909.652 19.9554 918.387 12.8086 929.538 7.79652C940.875 2.59884 953.792 0 968.288 0C984.829 0 999.976 3.06292 1013.73 9.18875C1027.48 15.129 1039.1 23.668 1048.58 34.8059L1024.6 59.8661C1017.35 50.9558 1008.99 44.1803 999.511 39.5395C990.219 34.7131 979.904 32.2999 968.567 32.2999C957.416 32.2999 948.495 34.6203 941.804 39.261C935.114 43.7162 931.769 50.0277 931.769 58.1955C931.769 65.2494 935.021 70.7256 941.526 74.6238C948.03 78.5221 959.182 81.7706 974.979 84.3695C1000.25 88.4534 1018.84 95.5074 1030.73 105.531C1042.81 115.37 1048.85 128.828 1048.85 145.906C1048.85 158.158 1045.6 169.017 1039.1 178.485C1032.59 187.766 1023.39 195.006 1011.5 200.203C999.604 205.401 985.758 208 969.961 208C952.863 208 937.065 204.844 922.569 198.533C908.072 192.221 895.713 183.125 885.491 171.245Z" fill="#FFF2E6" style="fill:#FFF2E6;fill:color(display-p3 1.0000 0.9478 0.9019);fill-opacity:1;"/>
<path d="M1144.99 203.545H1107.64V34.249H1144.99V203.545ZM1203.26 37.0335H1049.37V4.45515H1203.26V37.0335Z" fill="#FFF2E6" style="fill:#FFF2E6;fill:color(display-p3 1.0000 0.9478 0.9019);fill-opacity:1;"/>
<path d="M1372.81 4.45515V125.023C1372.81 151.197 1365.66 171.616 1351.35 186.281C1337.03 200.76 1317.33 208 1292.24 208C1267.15 208 1247.36 200.76 1232.87 186.281C1218.55 171.616 1211.4 151.197 1211.4 125.023V4.45515H1249.03V125.023C1249.03 140.059 1252.84 152.032 1260.46 160.942C1268.08 169.667 1278.68 174.029 1292.24 174.029C1305.81 174.029 1316.41 169.667 1324.03 160.942C1331.65 152.032 1335.45 140.059 1335.45 125.023V4.45515H1372.81Z" fill="#FFF2E6" style="fill:#FFF2E6;fill:color(display-p3 1.0000 0.9478 0.9019);fill-opacity:1;"/>
<path d="M1397.17 203.545V4.45515H1465.75C1486.01 4.45515 1503.66 8.72467 1518.72 17.2637C1533.96 25.6171 1545.76 37.3119 1554.12 52.3481C1562.67 67.1986 1566.94 84.3695 1566.94 103.861C1566.94 123.352 1562.67 140.616 1554.12 155.652C1545.76 170.502 1533.96 182.197 1518.72 190.736C1503.66 199.275 1486.01 203.545 1465.75 203.545H1397.17ZM1434.8 171.245H1465.75C1478.39 171.245 1489.26 168.461 1498.37 162.892C1507.66 157.323 1514.81 149.526 1519.83 139.502C1524.85 129.292 1527.36 117.412 1527.36 103.861C1527.36 90.3097 1524.85 78.5221 1519.83 68.498C1514.81 58.4739 1507.66 50.6774 1498.37 45.1084C1489.26 39.5395 1478.39 36.755 1465.75 36.755H1434.8V171.245Z" fill="#FFF2E6" style="fill:#FFF2E6;fill:color(display-p3 1.0000 0.9478 0.9019);fill-opacity:1;"/>
<path d="M1622.13 203.545H1584.49V4.45515H1622.13V203.545Z" fill="#FFF2E6" style="fill:#FFF2E6;fill:color(display-p3 1.0000 0.9478 0.9019);fill-opacity:1;"/>
<path d="M1739.64 208C1725.14 208 1711.76 205.401 1699.5 200.203C1687.23 195.006 1676.54 187.766 1667.44 178.485C1658.52 169.203 1651.55 158.251 1646.53 145.628C1641.7 132.819 1639.28 118.897 1639.28 103.861C1639.28 88.8246 1641.7 74.9951 1646.53 62.3722C1651.55 49.7492 1658.52 38.797 1667.44 29.5154C1676.54 20.2338 1687.23 12.9942 1699.5 7.79652C1711.76 2.59884 1725.14 0 1739.64 0C1754.14 0 1767.42 2.59884 1779.51 7.79652C1791.77 12.9942 1802.37 20.3266 1811.29 29.7938C1820.39 39.0754 1827.45 50.0277 1832.47 62.6506C1837.49 75.0879 1840 88.8246 1840 103.861C1840 118.897 1837.49 132.726 1832.47 145.349C1827.45 157.972 1820.39 169.017 1811.29 178.485C1802.37 187.766 1791.77 195.006 1779.51 200.203C1767.42 205.401 1754.14 208 1739.64 208ZM1739.64 174.308C1751.72 174.308 1762.31 171.245 1771.42 165.119C1780.53 158.993 1787.59 150.64 1792.61 140.059C1797.81 129.478 1800.41 117.412 1800.41 103.861C1800.41 90.1241 1797.81 78.058 1792.61 67.6626C1787.59 57.0817 1780.53 48.8211 1771.42 42.8809C1762.31 36.755 1751.72 33.6921 1739.64 33.6921C1727.75 33.6921 1717.15 36.755 1707.86 42.8809C1698.75 48.8211 1691.6 57.0817 1686.39 67.6626C1681.38 78.058 1678.87 90.1241 1678.87 103.861C1678.87 117.412 1681.38 129.571 1686.39 140.337C1691.6 150.918 1698.75 159.272 1707.86 165.398C1717.15 171.338 1727.75 174.308 1739.64 174.308Z" fill="#FFF2E6" style="fill:#FFF2E6;fill:color(display-p3 1.0000 0.9478 0.9019);fill-opacity:1;"/>
<path d="M1759.29 103.478C1759.29 117.895 1750.52 129.582 1739.69 129.582C1728.86 129.582 1720.09 117.895 1720.09 103.478C1720.09 89.0608 1728.86 77.3735 1739.69 77.3735C1750.52 77.3735 1759.29 89.0608 1759.29 103.478Z" fill="#FFF2E6" style="fill:#FFF2E6;fill:color(display-p3 1.0000 0.9478 0.9019);fill-opacity:1;"/>
</svg>
